<?xml version="1.0" standalone="no"?>
<!DOCTYPE svg PUBLIC "-//W3C//DTD SVG 20010904//EN"
 "http://www.w3.org/TR/2001/REC-SVG-20010904/DTD/svg10.dtd">
<svg version="1.0" xmlns="http://www.w3.org/2000/svg"
 width="260.000000pt" height="260.000000pt" viewBox="0 0 260.000000 260.000000"
 preserveAspectRatio="xMidYMid meet">
<metadata>
Created by potrace 1.14, written by Peter Selinger 2001-2017
</metadata>
<g transform="translate(0.000000,260.000000) scale(0.100000,-0.100000)"
fill="#000000" stroke="none">
<path d="M0 1300 l0 -1300 1300 0 1300 0 0 1300 0 1300 -1300 0 -1300 0 0
-1300z m1141 1079 c40 -14 151 -94 195 -141 59 -62 158 -223 190 -308 18 -47
51 -128 74 -180 23 -52 53 -120 65 -151 13 -30 46 -103 73 -161 27 -58 57
-130 67 -159 9 -30 50 -121 90 -204 72 -148 126 -287 145 -372 6 -24 26 -67
44 -96 73 -111 79 -217 16 -271 -38 -32 -64 -39 -105 -32 -47 9 -82 40 -111
99 -15 28 -41 72 -59 98 -18 26 -36 65 -39 86 -20 110 -125 379 -155 397 -6 4
-210 7 -453 6 -347 0 -445 -3 -456 -13 -7 -7 -17 -39 -22 -71 -16 -99 -49
-207 -94 -306 -24 -52 -51 -120 -59 -150 -10 -35 -28 -67 -47 -85 -27 -26 -39
-30 -85 -30 -46 0 -58 4 -85 30 -67 64 -64 135 14 317 60 141 94 268 116 438
14 107 78 355 114 438 18 42 41 98 50 124 9 26 33 68 53 93 20 27 41 71 50
103 22 87 168 388 217 449 48 59 120 77 197 52z"/>
<path d="M1082 2018 c-9 -24 -30 -70 -48 -103 -17 -33 -39 -87 -48 -120 -20
-66 -47 -124 -81 -170 -12 -16 -28 -46 -35 -65 -7 -19 -25 -64 -41 -100 -29
-69 -60 -186 -51 -195 7 -7 717 -6 725 1 7 8 -23 83 -171 421 -22 51 -47 114
-56 141 -29 85 -132 232 -164 232 -7 0 -21 -19 -30 -42z"/>
</g>
</svg>
